<svg width="2247" height="732" viewBox="0 0 2247 732" fill="none" xmlns="http://www.w3.org/2000/svg">
    <path d="M2000 124H1V458H2000V124Z" fill="white"/>
    <path d="M1057 123H0V458H1057V123Z" fill="#00ADEF"/>
    <path d="M1358.47 219C1407.21 219 1436 250.113 1436 302.719V321.11H1325.49V323.364C1326.09 348.014 1337.48 358.332 1360.27 358.332C1377.52 358.332 1389.36 352.169 1394.01 341.197H1434.65C1428.05 372.46 1399.56 392 1359.07 392C1308.69 392 1279 360.136 1279 306.327C1279 252.368 1309.29 219 1358.47 219ZM1361.17 255.257C1340.92 255.257 1327.23 266.646 1325.73 288.14H1393.11C1392.21 266.195 1381.56 255.257 1361.17 255.257Z" fill="#505D6B"/>
    <path d="M1807.47 219C1856.21 219 1885 250.113 1885 302.719V321.11H1774.49V323.364C1775.09 348.014 1786.48 358.332 1809.27 358.332C1826.52 358.332 1838.36 352.169 1843.01 341.197H1883.65C1877.05 372.46 1848.56 392 1808.07 392C1757.69 392 1728 360.136 1728 306.327C1728 252.368 1758.29 219 1807.47 219ZM1810.17 255.257C1789.92 255.257 1776.23 266.646 1774.73 288.14H1842.11C1841.21 266.195 1830.56 255.257 1810.17 255.257Z" fill="#505D6B"/>
    <path d="M166.812 167C214.481 167 249.176 196.03 250.525 234.486H207.953C205.854 217.428 188.997 203.661 167.112 203.661C144.476 203.661 129.486 214.136 129.486 230.596C129.486 243.914 139.829 251.545 165.163 256.932L191.246 262.469C234.718 271.597 253.455 290.301 253.455 323.82C253.455 367.365 220.027 394 165.763 394C114.196 394 77.4935 360.328 75.8446 320.076H119.616C121.715 337.584 124.675 358.437 167.112 358.437C190.646 358.437 208.335 345.817 208.335 329.506C208.335 315.74 197.542 307.809 171.009 302.123L142.828 296.137C103.403 287.907 84.0658 267.407 84.0658 234.486C84.0658 193.785 116.894 167 166.812 167ZM340.877 219.822C381.53 219.822 403.943 247.485 407.284 285.044H369.416C366.631 269.332 358.14 258.872 340.877 258.872C319.019 258.872 306.767 273.093 306.767 305.564C306.767 338.485 319.158 356.291 340.877 356.291C357.444 356.291 368.304 347.612 371.367 331.302H409.235C405.894 368.262 380.834 392.055 340.877 392.055C292.984 392.055 265.836 360.93 265.836 305.564C265.836 250.797 292.845 219.822 340.877 219.822ZM909.041 219.822C949.694 219.822 972.107 247.485 975.449 285.044H937.58C934.796 269.332 926.305 258.872 909.041 258.872C887.183 258.872 874.931 273.093 874.931 305.564C874.931 338.485 887.322 356.291 909.041 356.291C925.608 356.291 936.468 347.612 939.531 331.302H977.399C974.058 368.262 948.998 392.055 909.041 392.055C861.148 392.055 834 360.93 834 305.564C834 250.797 861.009 219.822 909.041 219.822ZM67.3896 341.477C61.2467 370.465 36.1195 389.329 0.000935793 391.782L0.000553548 358.174C13.2998 356.73 22.5354 351.01 26.6103 341.836L26.7661 341.477H67.3896ZM471.663 229.403V388.463H432.663V229.403H471.663ZM0.000353217 220.171C42.9268 223.676 68.1965 253.375 68.7301 301.605L68.7388 303.17V321.479L0 321.478V288.654L25.8667 288.655C25.1012 270.061 15.4317 257.429 0.000445545 254.079L0.000353217 220.171ZM571.809 219.822C620.04 219.822 648.731 250.181 649.3 301.605L649.309 303.17V321.479H538.833V323.724C539.432 348.264 550.823 358.536 573.608 358.536C590.657 358.536 602.428 352.535 607.18 341.836L607.336 341.477H647.959C641.364 372.602 612.882 392.055 572.409 392.055C522.042 392.055 492.361 360.332 492.361 306.761C492.361 253.042 522.641 219.822 571.809 219.822ZM1057 220.593L1057 255.277C1043.88 259.877 1035.16 271.789 1033.82 288.016L1033.77 288.655L1057 288.655V321.478L1033.62 321.479V323.724C1034.08 342.588 1042.69 353.021 1057 356.838L1057 391.278C1014.69 386.117 990.148 355.47 990.148 306.761C990.148 257.794 1015.31 225.86 1057 220.593ZM758.924 219.822C795.65 219.822 815.437 242.268 815.437 281.772V388.463H771.816V292.097C771.816 269.352 764.478 261.347 743.792 261.347C723.555 261.347 713.236 277.044 711.707 301.473V388.463H665.085V223.413H707.358V249.899C715.003 231.344 734.49 219.822 758.924 219.822ZM574.5 255.918C554.465 255.918 540.846 267.031 539.121 288.016L539.072 288.655H606.437C605.537 266.808 594.886 255.918 574.5 255.918ZM473.791 167V206.929H432.791V167H473.791Z" fill="white"/>
    <path d="M1500.51 389V301.824C1502.04 277.343 1512.33 261.613 1532.52 261.613C1553.16 261.613 1560.48 269.635 1560.48 292.429V389H1604V282.082C1604 242.493 1584.26 220 1547.62 220C1523.24 220 1503.8 231.547 1496.17 250.141V223.599H1454V389H1500.51Z" fill="#505D6B"/>
    <path d="M1198.83 392C1238.68 392 1263.67 368.102 1267 330.977H1229.24C1226.18 347.36 1215.35 356.077 1198.83 356.077C1177.17 356.077 1164.82 338.191 1164.82 305.124C1164.82 272.508 1177.03 258.224 1198.83 258.224C1216.05 258.224 1224.51 268.731 1227.29 284.512H1265.05C1261.72 246.786 1239.37 219 1198.83 219C1150.93 219 1124 250.113 1124 305.124C1124 360.737 1151.07 392 1198.83 392Z" fill="#505D6B"/>
    <path fill-rule="evenodd" clip-rule="evenodd" d="M1701.37 390C1710.43 390 1719.17 389.1 1725 388.051V354.76C1720.47 355.21 1717.23 355.36 1711.08 355.36C1695.06 355.36 1681.94 350.763 1681.94 336.367V261.989H1725V227.649H1681.94V178L1640.84 186.711V227.649H1613V261.989H1640.84V346.714C1640.84 378.955 1657.99 390 1701.37 390Z" fill="#505D6B"/>
    <path fill-rule="evenodd" clip-rule="evenodd" d="M1945.45 388V303.786C1945.45 286.706 1963.02 263.006 1981.59 263.006C1987.86 263.006 1996.93 264.351 2000 265.696V226.092C1996.66 224.747 1990.13 224 1984.79 224C1966.11 224 1945.25 239.183 1941.38 255.622V226.69H1907V388H1945.45Z" fill="#505D6B"/>
    <path d="M7.97095 21.7709H21.2382V28.5169C23.7117 25.7061 26.2977 23.701 28.9961 22.5017C31.732 21.2649 34.5241 20.6466 37.3724 20.6466C40.2957 20.6466 42.9192 21.0776 45.2428 21.9396C47.5665 22.8015 49.5153 24.0383 51.0894 25.6499C52.701 27.2239 53.9377 29.1353 54.7997 31.384C55.6617 33.5952 56.0927 36.0688 56.0927 38.8047V78.9998H42.8255V40.9409C42.8255 39.4793 42.6194 38.1863 42.2071 37.0619C41.7949 35.9376 41.2327 34.9819 40.5206 34.1949C39.8085 33.4078 38.9653 32.8269 37.9908 32.4521C37.0164 32.0399 35.9858 31.8337 34.8989 31.8337C33.1374 31.8337 31.4322 32.2085 29.7831 32.9581C28.1341 33.6702 26.6725 34.6446 25.3982 35.8814C24.1614 37.0807 23.1495 38.4861 22.3625 40.0976C21.6129 41.6717 21.2382 43.3208 21.2382 45.0447V78.9998H7.97095V21.7709Z" fill="#505D6B"/>
    <path d="M79.9849 53.927C80.2098 55.9883 80.697 57.9559 81.4466 59.8298C82.1961 61.6662 83.1518 63.2965 84.3137 64.7207C85.4755 66.1074 86.8247 67.213 88.3613 68.0375C89.8979 68.862 91.5469 69.2743 93.3084 69.2743C96.569 69.2743 99.2674 68.3935 101.404 66.6321C103.577 64.8331 105.301 62.1535 106.576 58.593H118.831C118.081 62.0035 116.863 65.0393 115.177 67.7002C113.528 70.3611 111.56 72.6098 109.274 74.4462C106.988 76.2827 104.458 77.6881 101.685 78.6625C98.9488 79.6369 96.1192 80.1242 93.1959 80.1242C89.0734 80.1242 85.363 79.2997 82.065 77.6506C78.7669 76.0016 75.9561 73.7904 73.6324 71.017C71.3088 68.2436 69.5098 65.0205 68.2356 61.3477C66.9988 57.6374 66.3804 53.7396 66.3804 49.6545C66.3804 45.8318 66.9988 42.1777 68.2356 38.6922C69.5098 35.1693 71.3088 32.0774 73.6324 29.4164C75.9561 26.718 78.7669 24.5818 82.065 23.0077C85.4005 21.4336 89.1296 20.6466 93.2522 20.6466C97.2248 20.6466 100.823 21.3586 104.046 22.7828C107.269 24.207 110.024 26.1933 112.31 28.7418C114.596 31.2528 116.339 34.2323 117.538 37.6803C118.775 41.0908 119.393 44.7824 119.393 48.7551V53.927H79.9849ZM105.901 43.8642C105.676 42.0652 105.208 40.4349 104.496 38.9733C103.821 37.5117 102.921 36.2561 101.797 35.2068C100.673 34.1199 99.3423 33.2954 97.8057 32.7332C96.2691 32.1336 94.5826 31.8337 92.7462 31.8337C91.0597 31.8337 89.4856 32.1523 88.024 32.7894C86.5998 33.4266 85.3256 34.2886 84.2012 35.3754C83.1144 36.4623 82.1961 37.7365 81.4466 39.1982C80.7345 40.6598 80.2473 42.2152 79.9849 43.8642H105.901Z" fill="#505D6B"/>
    <path d="M145.759 6.03014V21.7709H156.271V32.6208H145.759V63.765C145.759 65.3391 146.115 66.6508 146.827 67.7002C147.577 68.7496 148.607 69.2743 149.919 69.2743C150.331 69.2743 151.156 69.2181 152.392 69.1056C153.629 68.9557 155.334 68.4498 157.508 67.5878V78.0441C155.185 78.9436 152.973 79.5058 150.875 79.7306C148.813 79.993 147.108 80.1242 145.759 80.1242C143.997 80.1242 142.311 79.7681 140.699 79.056C139.088 78.344 137.664 77.3508 136.427 76.0765C135.228 74.7648 134.272 73.1907 133.56 71.3543C132.848 69.5179 132.492 67.4753 132.492 65.2267V32.6208H124.34V21.7709H132.492V6.03014H145.759Z" fill="#505D6B"/>
    <path d="M178.871 0.633301V28.011C183.031 23.1014 188.24 20.6466 194.499 20.6466C197.422 20.6466 200.064 21.115 202.426 22.052C204.824 22.9889 206.848 24.2819 208.497 25.931C210.184 27.58 211.477 29.5101 212.376 31.7213C213.313 33.9325 213.781 36.2936 213.781 38.8047V78.9998H200.514V41.8404C200.514 40.0414 200.271 38.5236 199.783 37.2868C199.296 36.0125 198.64 34.9819 197.816 34.1949C197.029 33.3703 196.111 32.7707 195.061 32.3959C194.012 32.0211 192.925 31.8337 191.801 31.8337C190.264 31.8337 188.727 32.171 187.191 32.8456C185.654 33.5203 184.268 34.4385 183.031 35.6003C181.794 36.7621 180.782 38.1301 179.995 39.7041C179.245 41.2782 178.871 42.9647 178.871 44.7637V78.9998H165.603V0.633301H178.871Z" fill="#505D6B"/>
    <path d="M237.73 53.927C237.955 55.9883 238.442 57.9559 239.192 59.8298C239.941 61.6662 240.897 63.2965 242.059 64.7207C243.22 66.1074 244.57 67.213 246.106 68.0375C247.643 68.862 249.292 69.2743 251.053 69.2743C254.314 69.2743 257.012 68.3935 259.149 66.6321C261.322 64.8331 263.046 62.1535 264.321 58.593H276.576C275.826 62.0035 274.608 65.0393 272.922 67.7002C271.273 70.3611 269.305 72.6098 267.019 74.4462C264.733 76.2827 262.203 77.6881 259.43 78.6625C256.694 79.6369 253.864 80.1242 250.941 80.1242C246.818 80.1242 243.108 79.2997 239.81 77.6506C236.512 76.0016 233.701 73.7904 231.377 71.017C229.054 68.2436 227.255 65.0205 225.981 61.3477C224.744 57.6374 224.125 53.7396 224.125 49.6545C224.125 45.8318 224.744 42.1777 225.981 38.6922C227.255 35.1693 229.054 32.0774 231.377 29.4164C233.701 26.718 236.512 24.5818 239.81 23.0077C243.145 21.4336 246.875 20.6466 250.997 20.6466C254.97 20.6466 258.568 21.3586 261.791 22.7828C265.014 24.207 267.768 26.1933 270.055 28.7418C272.341 31.2528 274.084 34.2323 275.283 37.6803C276.52 41.0908 277.138 44.7824 277.138 48.7551V53.927H237.73ZM263.646 43.8642C263.421 42.0652 262.953 40.4349 262.241 38.9733C261.566 37.5117 260.666 36.2561 259.542 35.2068C258.418 34.1199 257.087 33.2954 255.551 32.7332C254.014 32.1336 252.328 31.8337 250.491 31.8337C248.805 31.8337 247.231 32.1523 245.769 32.7894C244.345 33.4266 243.071 34.2886 241.946 35.3754C240.859 36.4623 239.941 37.7365 239.192 39.1982C238.479 40.6598 237.992 42.2152 237.73 43.8642H263.646Z" fill="#505D6B"/>
    <path d="M286.695 21.7709H296.533L298.725 28.798C300.449 26.0996 302.23 24.0758 304.066 22.7266C305.94 21.3399 307.982 20.6466 310.194 20.6466C310.868 20.6466 311.955 20.7965 313.454 21.0963C314.953 21.3586 316.752 22.0707 318.851 23.2325V34.7008C317.464 34.1761 316.265 33.7639 315.253 33.464C314.279 33.1642 313.454 32.9581 312.78 32.8456C312.142 32.6957 311.637 32.6208 311.262 32.6208C310.924 32.5833 310.681 32.5646 310.531 32.5646C308.882 32.5646 307.402 32.9206 306.09 33.6327C304.778 34.3073 303.672 35.2255 302.773 36.3873C301.874 37.5117 301.18 38.8234 300.693 40.3225C300.206 41.8216 299.962 43.377 299.962 44.9885V78.9998H286.695V21.7709Z" fill="#505D6B"/>
    <path d="M337.065 0.633301V78.9998H323.798V0.633301H337.065Z" fill="#505D6B"/>
    <path d="M401.265 77.482C400.178 78.1566 399.223 78.6625 398.398 78.9998C397.574 79.3746 396.824 79.637 396.149 79.7869C395.512 79.9743 394.95 80.0679 394.463 80.0679C394.013 80.1054 393.62 80.1242 393.282 80.1242C391.933 80.1242 390.696 79.8806 389.572 79.3933C388.485 78.9061 387.511 78.269 386.649 77.482C385.824 76.6574 385.093 75.7205 384.456 74.6711C383.857 73.5842 383.351 72.4412 382.938 71.2419C381.252 73.0033 379.659 74.465 378.16 75.6268C376.661 76.7511 375.181 77.6506 373.719 78.3252C372.257 78.9998 370.796 79.4683 369.334 79.7306C367.872 79.993 366.354 80.1242 364.78 80.1242C362.194 80.1242 359.777 79.7306 357.528 78.9436C355.317 78.1191 353.387 76.976 351.738 75.5144C350.089 74.0152 348.796 72.2163 347.859 70.1175C346.922 68.0188 346.454 65.6951 346.454 63.1466C346.454 60.9354 346.941 59.024 347.915 57.4125C348.927 55.8009 350.239 54.3955 351.85 53.1962C353.499 51.9969 355.355 50.9663 357.416 50.1043C359.515 49.2423 361.632 48.474 363.768 47.7994C365.942 47.0873 368.06 46.4127 370.121 45.7756C372.22 45.1384 374.075 44.4638 375.686 43.7518C377.335 43.0397 378.647 42.2526 379.622 41.3906C380.634 40.4912 381.14 39.423 381.14 38.1863C381.14 36.987 380.821 35.9938 380.184 35.2068C379.584 34.3822 378.797 33.7264 377.823 33.2392C376.886 32.7145 375.818 32.3397 374.618 32.1148C373.457 31.89 372.313 31.7775 371.189 31.7775C370.065 31.7775 368.94 31.9462 367.816 32.2835C366.692 32.5833 365.661 33.0705 364.724 33.7451C363.825 34.4197 363.056 35.3005 362.419 36.3873C361.782 37.4367 361.37 38.6922 361.182 40.1539H347.747C347.971 36.8558 348.777 33.9887 350.164 31.5527C351.588 29.0791 353.387 27.0366 355.561 25.425C357.734 23.8134 360.171 22.6142 362.869 21.8271C365.605 21.0401 368.378 20.6466 371.189 20.6466C374.262 20.6466 377.186 20.9839 379.959 21.6585C382.77 22.3331 385.243 23.4012 387.38 24.8628C389.516 26.3245 391.221 28.1984 392.495 30.4845C393.77 32.7332 394.407 35.4504 394.407 38.636V66.4072C394.407 67.1568 394.65 67.8501 395.138 68.4872C395.625 69.0869 396.318 69.3867 397.218 69.3867C397.33 69.3867 397.742 69.3492 398.454 69.2743C399.166 69.1618 400.103 68.7871 401.265 68.1499V77.482ZM381.14 51.5659C380.278 52.0906 379.153 52.5591 377.766 52.9713C376.38 53.3836 374.881 53.8146 373.269 54.2643C371.658 54.6766 370.027 55.1263 368.378 55.6135C366.767 56.1008 365.305 56.6817 363.993 57.3563C362.682 57.9934 361.595 58.7617 360.733 59.6612C359.908 60.5232 359.496 61.5538 359.496 62.7531C359.496 63.9149 359.683 64.9081 360.058 65.7326C360.433 66.5571 360.92 67.2317 361.52 67.7564C362.157 68.2811 362.869 68.6746 363.656 68.937C364.443 69.1618 365.23 69.2743 366.017 69.2743C368.603 69.2743 371.227 68.4123 373.888 66.6883C376.586 64.9268 379.003 62.2846 381.14 58.7617V51.5659Z" fill="#505D6B"/>
    <path d="M408.011 21.7709H421.278V28.5169C423.752 25.7061 426.338 23.701 429.036 22.5017C431.772 21.2649 434.564 20.6466 437.413 20.6466C440.336 20.6466 442.96 21.0776 445.283 21.9396C447.607 22.8015 449.556 24.0383 451.13 25.6499C452.741 27.2239 453.978 29.1353 454.84 31.384C455.702 33.5952 456.133 36.0688 456.133 38.8047V78.9998H442.866V40.9409C442.866 39.4793 442.66 38.1863 442.247 37.0619C441.835 35.9376 441.273 34.9819 440.561 34.1949C439.849 33.4078 439.006 32.8269 438.031 32.4521C437.057 32.0399 436.026 31.8337 434.939 31.8337C433.178 31.8337 431.472 32.2085 429.823 32.9581C428.174 33.6702 426.713 34.6446 425.439 35.8814C424.202 37.0807 423.19 38.4861 422.403 40.0976C421.653 41.6717 421.278 43.3208 421.278 45.0447V78.9998H408.011V21.7709Z" fill="#505D6B"/>
    <path d="M516.791 78.9998H503.524V72.7035C502.662 74.0527 501.669 75.2145 500.544 76.189C499.458 77.1259 498.315 77.8942 497.115 78.4939C495.953 79.056 494.773 79.4683 493.574 79.7306C492.374 79.993 491.231 80.1242 490.144 80.1242C486.471 80.1242 483.173 79.3559 480.25 77.8193C477.327 76.2827 474.835 74.1839 472.773 71.523C470.749 68.862 469.194 65.7326 468.107 62.1347C467.02 58.5368 466.477 54.6766 466.477 50.554C466.477 46.4689 466.945 42.6087 467.882 38.9733C468.857 35.3379 470.3 32.1711 472.211 29.4726C474.122 26.7367 476.484 24.5818 479.294 23.0077C482.143 21.4336 485.422 20.6466 489.132 20.6466C490.444 20.6466 491.775 20.834 493.124 21.2087C494.473 21.546 495.766 22.0707 497.003 22.7828C498.277 23.4574 499.458 24.3194 500.544 25.3688C501.669 26.3807 502.662 27.5425 503.524 28.8542V0.633301H516.791V78.9998ZM503.524 49.767C503.449 47.2934 503.13 44.9698 502.568 42.7961C502.044 40.6223 501.275 38.7297 500.263 37.1181C499.251 35.4691 498.033 34.1761 496.609 33.2392C495.185 32.3022 493.555 31.8337 491.718 31.8337C489.807 31.8337 488.102 32.3397 486.603 33.3516C485.104 34.326 483.848 35.6565 482.836 37.343C481.824 39.0295 481.056 41.0159 480.531 43.302C480.006 45.5507 479.744 47.968 479.744 50.554C479.744 53.14 480.006 55.5761 480.531 57.8622C481.056 60.1109 481.824 62.0972 482.836 63.8212C483.848 65.5077 485.104 66.8382 486.603 67.8126C488.102 68.7871 489.807 69.2743 491.718 69.2743C493.592 69.2743 495.26 68.7871 496.722 67.8126C498.183 66.8382 499.42 65.5077 500.432 63.8212C501.444 62.0972 502.212 60.1109 502.737 57.8622C503.262 55.5761 503.524 53.14 503.524 50.554V49.767Z" fill="#505D6B"/>
    <path d="M539.278 58.593C539.315 60.5419 539.615 62.2097 540.177 63.5964C540.74 64.9456 541.489 66.0512 542.426 66.9132C543.363 67.7377 544.431 68.3373 545.63 68.7121C546.83 69.0869 548.104 69.2743 549.453 69.2743C550.727 69.2743 551.964 69.1806 553.164 68.9932C554.4 68.7683 555.487 68.4123 556.424 67.9251C557.399 67.4379 558.167 66.782 558.729 65.9575C559.291 65.133 559.572 64.0836 559.572 62.8093C559.572 61.7599 559.235 60.8417 558.56 60.0547C557.886 59.2676 556.986 58.5556 555.862 57.9184C554.775 57.2438 553.52 56.6442 552.095 56.1195C550.671 55.5948 549.21 55.0701 547.711 54.5454C545.424 53.7584 543.101 52.8964 540.74 51.9594C538.379 50.985 536.242 49.8232 534.331 48.474C532.419 47.0873 530.845 45.457 529.609 43.5831C528.409 41.6717 527.81 39.3668 527.81 36.6684C527.81 33.97 528.353 31.6276 529.44 29.6413C530.527 27.6175 532.007 25.9497 533.881 24.638C535.755 23.2888 537.966 22.2956 540.515 21.6585C543.101 20.9839 545.893 20.6466 548.891 20.6466C552.189 20.6466 555.187 21.0213 557.886 21.7709C560.584 22.5205 562.889 23.6635 564.801 25.2001C566.749 26.6993 568.267 28.6294 569.354 30.9905C570.478 33.3516 571.116 36.125 571.266 39.3106H558.167C557.98 37.8864 557.605 36.7059 557.043 35.7689C556.518 34.7945 555.843 34.0262 555.019 33.464C554.194 32.8644 553.257 32.4521 552.208 32.2273C551.159 31.9649 550.053 31.8337 548.891 31.8337C546.305 31.8337 544.319 32.3022 542.932 33.2392C541.583 34.1386 540.908 35.3379 540.908 36.8371C540.908 37.774 541.246 38.6173 541.92 39.3668C542.595 40.1164 543.476 40.8097 544.562 41.4469C545.687 42.084 546.961 42.6836 548.385 43.2458C549.809 43.7705 551.29 44.3139 552.826 44.8761C555.112 45.7006 557.436 46.6001 559.797 47.5745C562.196 48.5489 564.351 49.692 566.262 51.0037C568.174 52.3155 569.729 53.8708 570.928 55.6698C572.165 57.4312 572.783 59.5113 572.783 61.9099C572.783 65.133 572.127 67.9063 570.816 70.23C569.541 72.5161 567.799 74.39 565.588 75.8517C563.414 77.3133 560.884 78.3814 557.998 79.056C555.112 79.7681 552.077 80.1242 548.891 80.1242C545.855 80.1242 542.951 79.6744 540.177 78.775C537.442 77.8755 535.024 76.545 532.925 74.7835C530.864 72.9846 529.196 70.7359 527.922 68.0375C526.648 65.3391 525.955 62.1909 525.842 58.593H539.278Z" fill="#505D6B"/>
    <path d="M1688.05 485.111C1686.41 487.196 1685.15 489.504 1684.26 492.036C1683.36 494.568 1682.24 496.95 1680.9 499.184C1679.71 501.418 1678.15 503.28 1676.21 504.769C1674.43 506.258 1671.89 506.928 1668.62 506.78C1666.24 507.673 1664.45 509.311 1663.26 511.694C1662.21 513.928 1661.17 516.236 1660.13 518.619C1659.09 520.853 1657.75 522.715 1656.11 524.204C1654.47 525.544 1652.01 525.693 1648.74 524.651C1644.57 526.438 1640.77 528.821 1637.34 531.799C1634.07 534.629 1630.94 537.607 1627.96 540.735C1626.92 541.777 1625.73 543.117 1624.39 544.756C1623.05 546.245 1621.78 547.362 1620.59 548.106C1619.55 548.702 1618.5 548.777 1617.46 548.33C1616.42 547.883 1615.45 547.436 1614.56 546.99C1613.66 546.394 1612.77 546.096 1611.88 546.096C1611.13 546.096 1610.46 546.766 1609.87 548.106C1610.91 550.191 1611.13 551.606 1610.54 552.351C1609.94 553.244 1608.97 553.915 1607.63 554.361C1606.29 554.808 1604.88 555.18 1603.39 555.478C1601.9 555.776 1600.71 556.297 1599.81 557.042C1598.03 558.68 1596.76 560.691 1596.02 563.073C1595.27 565.456 1594.6 567.839 1594.01 570.222C1591.31 581.023 1586.43 594.082 1581.05 603.954C1579.41 607.23 1577.77 610.506 1576.14 613.783C1574.5 617.208 1572.71 620.484 1570.77 623.612C1564.18 635.704 1550.58 648.932 1545.53 664.492C1545.23 665.385 1545.01 666.279 1544.86 667.173C1544.71 668.066 1544.49 669.034 1544.19 670.077C1543.45 672.162 1542.25 674.321 1540.62 676.555C1538.98 678.789 1537.19 681.097 1535.25 683.48C1533.32 685.863 1531.46 688.32 1529.67 690.852C1519.91 705.493 1504.72 712.049 1491.69 723.913C1489.91 722.871 1488.19 722.647 1486.56 723.243C1484.77 723.839 1483.06 724.658 1481.42 725.7C1479.63 726.743 1477.92 727.562 1476.28 728.158C1474.49 728.753 1472.63 728.53 1470.7 727.488C1469.65 728.679 1468.76 729.275 1468.01 729.275C1467.27 729.424 1466.38 728.828 1465.33 727.488L1461.98 731.062C1460.2 729.572 1458.04 728.158 1455.51 726.817C1452.82 725.626 1450.37 724.211 1448.13 722.573C1445.9 721.084 1444.11 719.297 1442.77 717.212C1441.43 715.276 1441.21 712.744 1442.1 709.616C1441.8 708.723 1441.36 707.755 1440.76 706.712C1440.02 705.67 1439.42 704.553 1438.97 703.362C1438.53 702.319 1438.23 701.202 1438.08 700.011C1437.93 698.968 1438.23 698 1438.97 697.107C1437.63 694.575 1437.19 691.969 1437.63 689.288C1437.93 686.756 1438.45 684.225 1439.2 681.693C1439.94 679.161 1440.54 676.629 1440.98 674.098C1441.43 671.566 1440.98 669.034 1439.64 666.502C1441.43 665.162 1442.77 663.449 1443.67 661.365C1444.41 659.28 1445.15 657.12 1445.9 654.886C1446.5 652.652 1447.17 650.493 1447.91 648.408C1448.65 646.323 1449.92 644.61 1451.71 643.27L1451.48 639.696C1458.48 632.25 1465.93 625.399 1473.82 619.144C1481.57 613.038 1490.35 608.496 1500.18 605.517C1502.12 602.092 1504.65 599.56 1507.78 597.922C1510.91 596.433 1514.11 595.018 1517.38 593.678C1520.51 592.486 1523.42 590.923 1526.1 588.987C1528.78 587.199 1530.79 584.295 1532.13 580.274C1532.87 581.913 1533.62 582.583 1534.36 582.285C1535.11 582.136 1535.85 581.764 1536.6 581.168C1537.49 580.721 1538.31 580.349 1539.05 580.051C1539.8 579.902 1540.54 580.572 1541.29 582.062C1542.78 577.594 1545.16 574.02 1548.43 571.339C1551.86 568.658 1555.58 566.275 1559.6 564.19C1563.77 562.254 1567.94 560.318 1572.11 558.382C1576.28 556.595 1579.93 554.361 1583.06 551.681C1586.34 549 1588.79 545.724 1590.43 541.852C1592.07 537.831 1592.44 532.693 1591.55 526.438C1592.89 525.544 1593.78 524.427 1594.23 523.087C1594.68 521.598 1594.97 520.108 1595.12 518.619C1595.42 517.13 1595.79 515.79 1596.24 514.598C1596.69 513.407 1597.65 512.588 1599.14 512.141C1598.1 510.503 1596.84 509.758 1595.35 509.907C1593.86 510.056 1592.29 510.503 1590.66 511.247C1589.17 511.992 1587.75 512.737 1586.41 513.481C1585.07 514.226 1583.95 514.375 1583.06 513.928C1582.61 516.013 1581.65 517.502 1580.16 518.396C1578.82 519.289 1577.33 520.108 1575.69 520.853C1574.05 521.449 1572.34 522.119 1570.55 522.864C1568.76 523.608 1567.35 524.8 1566.31 526.438C1564.97 525.842 1563.7 526.14 1562.51 527.331C1561.47 528.374 1560.35 529.565 1559.16 530.906C1558.12 532.097 1556.92 532.99 1555.58 533.586C1554.24 534.182 1552.68 533.586 1550.89 531.799C1550 534.182 1548.51 535.746 1546.42 536.49C1544.49 537.235 1542.33 537.607 1539.95 537.607C1537.56 537.607 1535.11 537.458 1532.57 537.16C1530.19 536.863 1528.03 536.937 1526.1 537.384L1522.3 533.586C1522 534.331 1521.55 534.927 1520.96 535.373C1520.21 535.82 1519.47 535.895 1518.72 535.597C1517.53 533.065 1516.42 530.384 1515.37 527.555C1514.18 524.576 1513.44 521.672 1513.14 518.843C1512.69 515.864 1512.92 513.034 1513.81 510.354C1514.7 507.524 1516.49 505.067 1519.17 502.982C1523.34 495.387 1528.78 489.43 1535.48 485.111C1536.22 485.707 1537.04 485.93 1537.94 485.781C1538.83 485.483 1539.72 485.111 1540.62 484.664C1541.66 484.068 1542.63 483.473 1543.52 482.877C1544.41 482.132 1545.23 481.686 1545.98 481.537C1546.42 479.898 1547.24 478.335 1548.43 476.845C1549.78 475.356 1551.19 474.016 1552.68 472.824C1554.32 471.633 1555.96 470.591 1557.59 469.697C1559.38 468.655 1561.02 467.761 1562.51 467.016C1565.34 465.676 1567.94 464.038 1570.33 462.102C1572.86 460.017 1575.39 458.081 1577.92 456.294C1580.45 454.358 1583.06 452.72 1585.74 451.379C1588.42 450.039 1591.47 449.369 1594.9 449.369L1598.92 452.943C1596.39 454.432 1594.16 456.294 1592.22 458.528C1590.43 460.613 1588.57 462.772 1586.63 465.006C1584.7 467.091 1582.61 469.027 1580.38 470.814C1578.15 472.601 1575.39 473.792 1572.11 474.388C1569.43 479.601 1565.78 484.068 1561.17 487.792C1556.7 491.366 1552.08 494.717 1547.32 497.844C1547.32 500.078 1546.65 501.865 1545.31 503.205C1543.97 504.546 1542.4 505.737 1540.62 506.78C1538.83 507.822 1537.04 508.79 1535.25 509.684C1533.47 510.428 1531.98 511.471 1530.79 512.811C1529.74 514.002 1529.22 515.566 1529.22 517.502C1529.22 519.289 1530.19 521.672 1532.13 524.651C1533.91 523.757 1536.07 523.161 1538.61 522.864C1541.14 522.566 1543.59 522.193 1545.98 521.747C1548.36 521.151 1550.45 520.332 1552.23 519.289C1554.17 518.098 1555.51 516.311 1556.25 513.928C1558.34 512.141 1560.57 511.024 1562.96 510.577C1565.34 510.13 1567.8 510.056 1570.33 510.354C1575.24 504.992 1580.16 500.078 1585.07 495.61C1590.13 490.993 1594.9 486.302 1599.37 481.537C1603.84 476.771 1607.93 471.708 1611.65 466.346C1615.53 460.836 1618.88 454.507 1621.71 447.358C1624.68 446.465 1627.37 446.837 1629.75 448.475C1632.13 450.113 1633.84 452.198 1634.89 454.73C1634.59 456.517 1634.07 458.23 1633.32 459.868C1632.73 461.357 1632.13 462.846 1631.54 464.336C1631.09 465.676 1630.72 467.165 1630.42 468.803C1630.27 470.442 1630.57 472.303 1631.31 474.388C1630.12 474.09 1629.15 474.463 1628.41 475.505C1627.81 476.548 1627.14 477.441 1626.4 478.186C1626.84 480.122 1626.77 481.909 1626.17 483.547C1625.58 485.036 1624.83 486.526 1623.94 488.015C1623.05 489.355 1622.23 490.844 1621.48 492.483C1620.89 494.121 1620.74 495.908 1621.04 497.844C1618.95 501.716 1617.39 505.812 1616.35 510.13C1615.45 514.3 1614.86 518.545 1614.56 522.864L1618.58 526.438C1620.51 523.608 1622.9 521.598 1625.73 520.406C1628.71 519.215 1631.68 518.247 1634.66 517.502C1637.64 516.609 1640.55 515.641 1643.38 514.598C1646.2 513.407 1648.66 511.396 1650.75 508.567C1651.64 504.248 1653.5 501.195 1656.33 499.408C1659.16 497.472 1662.14 495.833 1665.27 494.493C1668.39 493.153 1671.37 491.664 1674.2 490.025C1677.18 488.238 1679.27 485.409 1680.46 481.537H1686.04C1685.74 482.281 1685.89 482.951 1686.49 483.547C1687.08 484.143 1687.61 484.664 1688.05 485.111ZM1564.52 584.072C1563.03 584.966 1561.39 585.785 1559.6 586.529C1557.82 587.274 1556.03 588.093 1554.24 588.987C1552.46 589.88 1550.82 590.923 1549.33 592.114C1547.84 593.305 1546.72 594.795 1545.98 596.582C1544.34 595.688 1542.78 595.614 1541.29 596.358C1539.95 597.252 1538.61 598.22 1537.27 599.262C1535.93 600.454 1534.51 601.422 1533.02 602.167C1531.68 602.911 1530.19 602.837 1528.55 601.943C1525.72 603.73 1523.04 605.666 1520.51 607.751C1517.83 609.836 1515.15 611.847 1512.47 613.783C1509.79 615.868 1507.03 617.729 1504.2 619.367C1501.23 621.155 1498.1 622.495 1494.82 623.388C1493.18 626.069 1491.02 628.154 1488.34 629.643C1485.66 631.281 1482.98 632.845 1480.3 634.334C1477.47 635.824 1474.94 637.611 1472.71 639.696C1470.47 641.781 1469.06 644.685 1468.46 648.408C1463.85 651.386 1460.72 655.184 1459.08 659.801C1457.29 664.566 1456.32 669.555 1456.18 674.768C1456.03 680.129 1456.25 685.49 1456.85 690.852C1457.44 696.362 1457.74 701.351 1457.74 705.819C1459.68 708.053 1461.61 709.616 1463.55 710.51C1465.48 711.404 1467.49 711.85 1469.58 711.85C1471.66 711.85 1473.82 711.552 1476.06 710.957C1478.14 710.51 1480.45 710.063 1482.98 709.616C1483.58 707.383 1484.69 705.893 1486.33 705.149C1487.82 704.553 1489.46 704.106 1491.25 703.808C1492.89 703.51 1494.45 703.064 1495.94 702.468C1497.28 702.021 1498.02 700.83 1498.17 698.894L1500.18 700.681C1500.33 698.298 1501 696.288 1502.19 694.649C1503.38 693.16 1504.8 691.745 1506.44 690.405C1508.08 689.065 1509.86 687.799 1511.8 686.607C1513.59 685.416 1515.15 684.076 1516.49 682.586C1516.19 679.757 1516.71 677.374 1518.05 675.438C1519.39 673.502 1520.88 671.715 1522.52 670.077C1524.16 668.438 1525.65 666.651 1526.99 664.715C1528.18 662.779 1528.63 660.322 1528.33 657.344C1529.82 656.748 1530.86 655.78 1531.46 654.439C1532.05 653.099 1532.65 651.833 1533.24 650.642C1533.84 649.45 1534.58 648.557 1535.48 647.961C1536.52 647.365 1538.08 647.514 1540.17 648.408C1538.08 646.77 1537.19 645.504 1537.49 644.61C1537.94 643.717 1538.68 642.898 1539.72 642.153C1540.77 641.557 1541.73 640.813 1542.63 639.919C1543.52 639.026 1543.52 637.685 1542.63 635.898C1546.2 634.409 1548.51 632.25 1549.55 629.42C1550.59 626.59 1551.34 623.537 1551.79 620.261C1552.38 617.134 1553.2 614.006 1554.24 610.879C1555.29 607.9 1557.59 605.517 1561.17 603.73C1560.87 601.05 1561.32 598.667 1562.51 596.582C1563.85 594.646 1565.11 592.784 1566.31 590.997C1567.65 589.21 1568.54 587.348 1568.99 585.412C1569.58 583.476 1569.06 581.168 1567.42 578.487L1564.52 584.072Z" fill="#00ADEF"/>
    <path d="M1830.8 537.831C1829.01 537.831 1827.6 537.905 1826.55 538.054C1825.66 538.054 1824.84 538.128 1824.1 538.277C1823.35 538.426 1822.53 538.724 1821.64 539.171C1820.75 539.618 1819.55 540.288 1818.06 541.181C1817.47 542.82 1816.65 544.085 1815.61 544.979C1814.71 545.724 1813.6 546.394 1812.26 546.99C1811.07 547.436 1809.8 547.958 1808.46 548.553C1807.12 549 1805.85 549.819 1804.66 551.01C1793.34 552.798 1783.37 550.266 1774.73 543.415C1773.69 542.671 1772.72 541.852 1771.82 540.958C1771.08 540.064 1770.19 539.245 1769.14 538.501C1768.4 537.905 1767.95 537.682 1767.8 537.831C1767.8 537.831 1767.5 537.458 1766.91 536.714C1765.87 535.224 1765.2 533.437 1764.9 531.352C1764.75 529.118 1764.45 527.033 1764 525.097C1763.56 523.012 1762.66 521.3 1761.32 519.959C1760.13 518.47 1757.97 517.8 1754.85 517.949C1753.36 521.076 1751.2 524.278 1748.37 527.555C1745.69 530.682 1742.63 533.512 1739.21 536.043C1735.78 538.575 1732.13 540.66 1728.26 542.298C1724.54 543.937 1720.97 544.756 1717.54 544.756C1716.35 548.181 1714.26 550.713 1711.29 552.351C1708.46 554.138 1705.4 555.478 1702.13 556.372C1701.83 556.521 1701.23 556.67 1700.34 556.819C1699.45 557.116 1698.92 557.265 1698.78 557.265C1696.69 557.414 1695.05 557.042 1693.86 556.148C1692.67 555.255 1691.55 554.287 1690.51 553.244C1689.47 552.202 1688.35 551.234 1687.16 550.34C1685.97 549.447 1684.33 549 1682.24 549C1680.61 545.128 1678.97 541.33 1677.33 537.607C1675.69 533.884 1674.5 530.086 1673.76 526.214C1675.1 525.47 1675.84 524.576 1675.99 523.534C1675.99 522.342 1675.99 521.151 1675.99 519.959C1673.61 519.215 1672.42 518.321 1672.42 517.279C1672.27 516.087 1672.49 514.896 1673.09 513.705C1673.53 512.513 1674.05 511.396 1674.65 510.354C1675.1 509.162 1674.8 508.194 1673.76 507.45C1674.95 498.365 1677.55 489.579 1681.57 481.09C1685.6 472.601 1691.33 465.527 1698.78 459.868C1697.88 457.038 1698.11 454.879 1699.45 453.39C1700.93 451.9 1702.65 451.081 1704.58 450.932C1706.67 450.783 1708.6 451.305 1710.39 452.496C1712.33 453.539 1713.3 455.251 1713.3 457.634C1713.44 458.677 1713.37 459.719 1713.07 460.761C1712.77 461.804 1712.48 462.772 1712.18 463.666C1711.29 468.133 1709.94 472.452 1708.16 476.622C1706.37 480.792 1704.43 484.887 1702.35 488.908C1700.26 492.929 1698.11 496.95 1695.87 500.971C1693.79 504.992 1692 509.162 1690.51 513.481C1688.72 514.673 1688.13 515.938 1688.72 517.279C1689.32 518.619 1690.06 519.959 1690.96 521.3C1692 522.491 1692.52 523.683 1692.52 524.874C1692.67 526.065 1691.33 527.182 1688.5 528.225C1687.61 530.31 1687.83 532.171 1689.17 533.81C1690.51 535.299 1691.63 536.863 1692.52 538.501C1693.71 538.65 1694.83 538.65 1695.87 538.501C1697.06 538.352 1698.03 537.682 1698.78 536.49C1700.56 537.682 1702.13 537.905 1703.47 537.16C1704.96 536.416 1706.45 535.522 1707.93 534.48C1709.57 533.288 1711.29 532.32 1713.07 531.576C1715.01 530.831 1717.17 531.054 1719.55 532.246C1720.59 531.203 1721.41 529.937 1722.01 528.448C1722.75 526.959 1723.5 525.544 1724.24 524.204C1724.99 522.864 1725.88 521.747 1726.92 520.853C1728.11 519.959 1729.75 519.662 1731.84 519.959C1733.92 516.236 1736.68 513.183 1740.1 510.801C1743.53 508.269 1746.95 505.886 1750.38 503.652C1753.95 501.418 1757.08 499.035 1759.76 496.504C1762.59 493.972 1764.38 490.696 1765.12 486.675C1767.95 482.207 1770.78 477.218 1773.61 471.708C1776.59 466.048 1780.01 461.357 1783.89 457.634C1784.33 456.443 1785.08 455.549 1786.12 454.953C1787.16 454.209 1788.28 453.762 1789.47 453.613C1790.66 453.315 1791.85 453.39 1793.05 453.836C1794.24 454.134 1795.28 454.73 1796.17 455.624C1796.47 458.304 1796.1 460.761 1795.06 462.995C1794.16 465.229 1793.12 467.463 1791.93 469.697C1790.89 471.782 1790.07 474.016 1789.47 476.399C1788.88 478.782 1789.1 481.537 1790.14 484.664C1788.06 485.855 1785.97 486.898 1783.89 487.792C1781.95 488.685 1780.09 489.653 1778.3 490.696C1776.66 491.738 1775.17 493.078 1773.83 494.717C1772.64 496.355 1771.82 498.514 1771.38 501.195C1775.4 502.684 1777.78 504.546 1778.53 506.78C1779.27 509.013 1779.64 511.471 1779.64 514.151C1779.64 516.683 1779.79 519.364 1780.09 522.193C1780.54 524.874 1782.47 527.555 1785.9 530.235C1786.49 530.682 1786.86 531.054 1787.01 531.352C1787.31 531.501 1787.83 531.725 1788.58 532.022C1790.07 532.469 1791.41 532.469 1792.6 532.022C1793.79 531.427 1794.91 530.906 1795.95 530.459C1797.14 530.012 1798.33 529.863 1799.52 530.012C1800.86 530.012 1802.35 530.906 1803.99 532.693C1806.23 529.863 1808.31 529.863 1810.25 532.693C1812.03 529.416 1813.67 527.555 1815.16 527.108C1816.65 526.661 1818.06 526.512 1819.41 526.661C1820.89 526.81 1822.38 526.661 1823.87 526.214C1825.36 525.768 1827 523.906 1828.79 520.63L1830.8 522.64C1831.69 520.257 1832.73 519.14 1833.93 519.289C1835.27 519.289 1836.53 519.513 1837.72 519.959C1838.91 520.257 1839.96 520.257 1840.85 519.959C1841.74 519.513 1842.19 517.726 1842.19 514.598C1843.53 514.598 1844.65 514.3 1845.54 513.705C1846.58 513.109 1847.55 512.439 1848.45 511.694C1849.49 510.949 1850.61 510.354 1851.8 509.907C1852.99 509.311 1854.4 509.013 1856.04 509.013L1850.23 523.087L1830.8 537.831Z" fill="#00ADEF"/>
    <path d="M1899.16 409.605C1896.47 410.648 1894.99 412.212 1894.69 414.297C1894.39 416.382 1894.24 418.541 1894.24 420.775C1894.39 423.009 1894.31 425.094 1894.02 427.03C1893.72 428.966 1892.23 430.232 1889.55 430.827C1888.51 429.04 1887.17 427.402 1885.53 425.913C1884.04 424.275 1882.55 422.711 1881.06 421.222C1879.57 419.584 1878.38 417.871 1877.49 416.084C1876.59 414.297 1876.29 412.137 1876.59 409.605L1887.76 396.649C1889.55 397.245 1890.96 397.989 1892.01 398.883C1893.05 399.776 1893.94 400.819 1894.69 402.01C1895.43 403.202 1896.1 404.468 1896.7 405.808C1897.44 406.999 1898.26 408.265 1899.16 409.605ZM1942.49 509.684C1942.64 512.96 1942.34 515.268 1941.6 516.609C1941 517.949 1940.26 519.066 1939.36 519.959C1938.47 520.704 1937.65 521.598 1936.91 522.64C1936.31 523.534 1936.01 525.172 1936.01 527.555C1932.59 531.278 1929.83 534.033 1927.75 535.82C1925.66 537.458 1923.65 538.873 1921.72 540.064C1919.78 541.107 1917.62 542.298 1915.24 543.639C1912.86 544.979 1909.58 547.064 1905.41 549.894L1903.85 550.117C1903.4 552.351 1902.58 553.617 1901.39 553.915C1900.35 554.361 1899.08 554.585 1897.59 554.585C1896.25 554.585 1894.91 554.734 1893.57 555.031C1892.23 555.329 1891.11 556.595 1890.22 558.829C1887.69 559.574 1885.53 559.872 1883.74 559.723C1881.95 559.574 1879.65 559.499 1876.82 559.499C1875.92 559.499 1874.73 559.425 1873.24 559.276C1871.9 559.127 1870.78 559.201 1869.89 559.499C1869.3 559.648 1868.63 560.021 1867.88 560.616C1867.28 561.361 1866.61 561.957 1865.87 562.403C1865.13 562.85 1864.38 562.999 1863.64 562.85C1862.89 562.85 1862.22 562.254 1861.63 561.063C1859.84 561.51 1858.2 561.51 1856.71 561.063C1855.22 560.616 1853.81 559.872 1852.47 558.829C1851.13 557.787 1849.86 556.521 1848.67 555.031C1847.63 553.691 1846.58 552.425 1845.54 551.234C1844.8 550.34 1843.98 549.521 1843.08 548.777C1842.19 548.032 1841.37 547.287 1840.63 546.543C1838.99 544.905 1837.8 542.82 1837.05 540.288C1836.31 537.756 1835.86 535.15 1835.71 532.469C1835.56 529.789 1835.64 527.108 1835.94 524.427C1836.23 521.747 1836.68 519.364 1837.28 517.279C1838.62 515.938 1839.58 514.449 1840.18 512.811C1840.63 511.024 1841 509.237 1841.3 507.45C1841.74 505.663 1842.19 503.95 1842.64 502.312C1843.23 500.525 1844.2 498.961 1845.54 497.621C1845.54 495.685 1845.84 493.897 1846.44 492.259C1847.18 490.621 1848.07 489.057 1849.12 487.568C1850.31 486.079 1851.57 484.739 1852.91 483.547C1854.4 482.207 1855.74 480.941 1856.93 479.75C1858.13 479.75 1859.32 479.75 1860.51 479.75C1861.7 479.601 1862.82 479.675 1863.86 479.973C1864.9 480.122 1865.8 480.569 1866.54 481.313C1867.28 481.909 1867.88 482.951 1868.33 484.441C1869.37 488.462 1869.07 491.738 1867.43 494.27C1865.94 496.653 1864.23 498.961 1862.3 501.195C1860.36 503.429 1858.8 505.737 1857.6 508.12C1856.41 510.503 1856.71 513.556 1858.5 517.279C1856.86 517.279 1855.74 517.726 1855.15 518.619C1854.7 519.513 1854.33 520.555 1854.03 521.747C1853.88 522.789 1853.58 523.832 1853.14 524.874C1852.69 525.917 1851.8 526.661 1850.46 527.108C1851.35 528.001 1851.8 529.565 1851.8 531.799C1851.95 534.033 1852.17 536.192 1852.47 538.277C1852.91 540.213 1853.58 541.777 1854.48 542.969C1855.52 544.16 1857.38 544.234 1860.06 543.192C1862 544.83 1864.31 545.5 1866.99 545.202C1869.82 544.905 1872.42 544.83 1874.81 544.979C1876.89 543.639 1878.68 542.969 1880.17 542.969C1881.66 542.82 1883.07 542.969 1884.41 543.415C1885.75 543.713 1887.17 544.011 1888.66 544.309C1890.15 544.607 1891.93 544.383 1894.02 543.639C1894.61 541.107 1895.66 539.618 1897.14 539.171C1898.63 538.724 1900.12 538.501 1901.61 538.501C1903.1 538.352 1904.44 538.054 1905.63 537.607C1906.97 537.16 1907.87 535.671 1908.31 533.139C1909.51 531.65 1910.92 530.831 1912.56 530.682C1914.2 530.384 1915.83 530.086 1917.47 529.789C1919.26 529.491 1920.82 528.895 1922.16 528.001C1923.65 526.959 1924.7 525.023 1925.29 522.193C1927.82 520.257 1929.61 518.843 1930.65 517.949C1931.84 516.906 1932.81 516.087 1933.56 515.492C1934.3 514.896 1935.27 514.226 1936.46 513.481C1937.65 512.737 1939.66 511.471 1942.49 509.684Z" fill="#00ADEF"/>
    <path d="M2098.86 500.301C2095.59 507.748 2092.61 513.556 2089.93 517.726C2087.25 521.747 2084.27 525.097 2080.99 527.778C2077.87 530.459 2074.22 532.99 2070.05 535.373C2065.88 537.607 2060.74 540.809 2054.63 544.979C2052.1 545.128 2049.35 545.724 2046.37 546.766C2043.39 547.66 2040.86 548.926 2038.77 550.564C2034.31 550.117 2030.21 549.149 2026.49 547.66C2022.76 546.17 2019.26 543.788 2015.99 540.511C2015.24 539.767 2014.57 538.948 2013.98 538.054C2013.38 537.16 2012.71 536.341 2011.97 535.597C2010.33 533.661 2009.29 531.948 2008.84 530.459C2008.39 528.969 2008.02 527.033 2007.72 524.651C2007.13 521.225 2006.23 518.768 2005.04 517.279C2003.85 515.79 2001.54 516.534 1998.12 519.513L1996.11 517.726L1995.66 518.172C1994.32 519.215 1993.2 520.108 1992.31 520.853C1991.56 521.598 1990.74 522.417 1989.85 523.31C1989.11 524.055 1988.36 524.874 1987.62 525.768C1986.87 526.661 1985.98 527.778 1984.94 529.118C1983.15 531.352 1981.14 533.661 1978.9 536.043C1976.82 538.426 1974.36 540.064 1971.53 540.958C1971.09 541.405 1970.71 541.852 1970.42 542.298C1970.12 542.596 1969.6 542.82 1968.85 542.969C1967.96 543.266 1966.92 543.192 1965.72 542.745C1964.53 542.298 1963.57 541.703 1962.82 540.958C1961.18 540.958 1959.69 541.405 1958.35 542.298C1957.16 543.043 1955.97 544.085 1954.78 545.426C1953.74 546.617 1952.69 547.883 1951.65 549.223C1950.76 550.564 1949.72 551.681 1948.52 552.574C1946.14 551.681 1943.91 551.532 1941.82 552.127C1939.89 552.723 1937.95 553.244 1936.01 553.691C1934.08 554.287 1932.14 554.51 1930.21 554.361C1928.27 554.361 1926.33 553.244 1924.4 551.01C1923.5 546.543 1922.76 542.447 1922.16 538.724C1921.57 535.597 1921.05 532.618 1920.6 529.789C1920.15 526.959 1919.93 525.246 1919.93 524.651C1920.67 523.906 1921.05 522.938 1921.05 521.747C1920.9 520.406 1920.67 519.289 1920.38 518.396C1920.08 518.247 1919.93 518.098 1919.93 517.949C1919.93 517.8 1919.78 517.651 1919.48 517.502C1920.23 516.906 1920.82 516.162 1921.27 515.268C1921.57 514.375 1922.09 513.63 1922.83 513.034C1922.39 511.843 1921.87 510.503 1921.27 509.013C1920.67 507.524 1920.38 506.035 1920.38 504.546C1920.82 503.354 1921.27 502.684 1921.72 502.535C1922.02 502.386 1922.83 502.163 1924.17 501.865C1924.03 501.12 1923.88 500.45 1923.73 499.854C1923.43 499.11 1923.36 498.365 1923.5 497.621C1923.5 496.131 1923.88 494.865 1924.62 493.823C1925.22 492.632 1925.89 491.515 1926.63 490.472C1927.38 489.281 1928.05 488.015 1928.64 486.675C1929.24 485.334 1929.54 483.771 1929.54 481.983V480.866C1931.77 480.866 1933.26 480.271 1934 479.079C1934.75 477.739 1935.2 476.25 1935.34 474.612C1935.49 472.973 1935.57 471.335 1935.57 469.697C1935.57 468.059 1936.01 466.867 1936.91 466.123C1937.5 465.527 1938.02 465.304 1938.47 465.453C1939.07 465.453 1939.74 465.453 1940.48 465.453C1941.38 464.41 1941.97 463.666 1942.27 463.219C1942.57 462.623 1942.49 461.581 1942.05 460.091C1943.09 460.091 1943.91 459.868 1944.5 459.421C1945.1 458.974 1945.55 458.379 1945.84 457.634C1946.29 456.889 1946.66 456.145 1946.96 455.4C1947.41 454.656 1947.93 453.985 1948.52 453.39C1948.52 449.667 1949.49 447.06 1951.43 445.571C1953.36 444.082 1955.52 442.89 1957.91 441.997C1960.44 440.954 1962.9 439.763 1965.28 438.423C1967.81 437.082 1969.67 434.699 1970.86 431.274C1972.8 432.466 1974.44 432.615 1975.78 431.721C1977.12 430.678 1978.38 429.636 1979.57 428.594C1980.77 427.402 1982.11 426.657 1983.6 426.36C1985.09 425.913 1986.95 426.881 1989.18 429.264C1990.07 426.434 1991.86 424.945 1994.54 424.796C1997.37 424.647 1999.9 425.243 2002.14 426.583V426.806H2002.36C2004.74 427.253 2006.53 428.445 2007.72 430.381C2008.91 432.168 2009.88 434.253 2010.63 436.636C2011.52 438.869 2012.41 441.103 2013.31 443.337C2014.35 445.571 2015.76 447.358 2017.55 448.699C2018.44 444.826 2019.26 440.88 2020.01 436.859C2020.9 432.838 2022.32 429.04 2024.25 425.466C2025.59 427.104 2027.01 427.402 2028.5 426.36L2028.27 425.913C2028.27 423.53 2028.72 421.371 2029.61 419.435C2030.66 417.499 2031.62 415.637 2032.52 413.85C2033.56 411.914 2034.16 409.978 2034.31 408.042C2034.6 405.957 2033.93 403.648 2032.29 401.117C2034.83 400.372 2036.61 398.957 2037.66 396.872C2038.85 394.787 2039.74 392.553 2040.34 390.171C2041.08 387.639 2041.83 385.107 2042.57 382.575C2043.46 380.044 2044.8 377.884 2046.59 376.097C2046.59 375.65 2046.52 375.204 2046.37 374.757C2046.37 374.31 2046.37 373.863 2046.37 373.417C2046.52 372.225 2046.96 371.183 2047.71 370.289C2048.45 369.396 2049.27 368.502 2050.17 367.608C2051.06 366.715 2051.8 365.747 2052.4 364.704C2053.14 363.513 2053.44 362.098 2053.29 360.46C2054.78 358.524 2056.12 355.992 2057.31 352.865C2058.51 349.588 2059.77 346.535 2061.11 343.706C2062.45 340.876 2064.02 338.791 2065.8 337.451C2067.59 335.962 2069.9 336.036 2072.73 337.674C2073.32 339.461 2073.55 341.1 2073.4 342.589C2073.25 343.929 2072.43 345.344 2070.94 346.833C2071.83 347.727 2072.5 348.471 2072.95 349.067C2072.5 353.684 2071.61 358.301 2070.27 362.917C2069.08 367.385 2067.89 371.778 2066.7 376.097C2066.99 376.395 2067.29 376.693 2067.59 376.991C2067.89 377.289 2068.19 377.586 2068.48 377.884C2065.95 381.459 2063.87 385.033 2062.23 388.607C2060.74 392.181 2059.4 396.053 2058.21 400.223C2057.76 401.861 2057.31 403.574 2056.87 405.361C2056.57 407.148 2056.12 408.786 2055.53 410.276C2054.78 411.765 2053.89 413.403 2052.85 415.19C2051.8 416.828 2050.91 418.467 2050.17 420.105C2048.53 423.53 2047.04 427.03 2045.7 430.604C2044.51 434.029 2043.32 437.529 2042.12 441.103C2040.63 445.422 2039.07 449.667 2037.43 453.836C2035.94 458.006 2034.08 462.102 2031.85 466.123V469.697C2031.7 471.335 2031.18 472.527 2030.28 473.271C2029.39 473.867 2028.35 474.463 2027.16 475.058C2026.11 475.505 2025.07 476.25 2024.03 477.292C2022.99 478.186 2022.24 479.75 2021.8 481.983V482.207L2022.02 482.43C2023.51 485.707 2023.81 488.76 2022.91 491.589C2022.17 494.27 2021.27 496.95 2020.23 499.631C2019.19 502.163 2018.44 504.695 2018 507.226C2017.7 509.758 2018.74 512.364 2021.13 515.045C2020.98 518.023 2021.57 520.406 2022.91 522.193C2024.25 523.832 2025.82 525.246 2027.6 526.438C2029.39 527.629 2031.18 528.746 2032.96 529.789C2034.9 530.682 2036.32 531.874 2037.21 533.363C2038.7 531.874 2040.26 530.757 2041.9 530.012C2043.69 529.118 2045.4 528.448 2047.04 528.001C2048.83 527.555 2050.54 527.182 2052.18 526.885C2053.96 526.438 2055.68 525.917 2057.31 525.321C2061.19 524.278 2063.87 523.012 2065.36 521.523C2066.85 520.034 2067.59 519.066 2067.59 518.619C2067.74 516.534 2068.48 515.194 2069.82 514.598C2071.31 514.002 2072.95 513.63 2074.74 513.481C2076.67 513.183 2078.54 512.811 2080.32 512.364C2082.26 511.917 2083.67 510.801 2084.57 509.013C2086.21 509.162 2087.62 508.641 2088.81 507.45C2090.15 506.109 2091.34 504.769 2092.39 503.429C2093.43 502.088 2094.47 500.971 2095.51 500.078C2096.56 499.184 2097.67 499.259 2098.86 500.301ZM2007.05 465.899C2004.67 464.112 2003.03 462.102 2002.14 459.868C2001.39 457.485 2000.72 455.102 2000.13 452.72C1999.68 450.337 1999.01 448.103 1998.12 446.018C1997.37 443.784 1995.81 441.922 1993.43 440.433L1992.98 440.21C1992.83 440.21 1992.01 440.359 1990.52 440.657C1989.03 440.954 1988.14 441.178 1987.84 441.327C1989.03 442.369 1989.78 443.263 1990.07 444.007C1990.37 444.752 1990.37 445.497 1990.07 446.241C1989.93 446.986 1989.55 447.805 1988.96 448.699C1988.51 449.443 1988.14 450.411 1987.84 451.603C1987.54 451.9 1986.95 451.826 1986.05 451.379C1985.16 450.783 1984.49 450.337 1984.04 450.039C1981.96 453.166 1978.98 455.251 1975.11 456.294C1971.38 457.187 1967.81 458.081 1964.38 458.974C1964.68 459.719 1964.98 460.389 1965.28 460.985C1965.58 461.581 1965.87 462.251 1966.17 462.995C1961.7 465.974 1958.43 469.623 1956.34 473.941C1954.41 478.111 1952.62 482.505 1950.98 487.121C1949.49 491.589 1947.63 495.982 1945.4 500.301C1943.31 504.471 1940.04 508.045 1935.57 511.024C1936.31 512.215 1936.83 513.407 1937.13 514.598C1937.43 515.79 1938.4 516.683 1940.04 517.279C1940.48 518.917 1940.63 520.63 1940.48 522.417C1940.48 524.055 1940.33 525.693 1940.04 527.331C1939.74 528.969 1939.51 530.682 1939.36 532.469C1939.36 534.107 1939.59 535.82 1940.04 537.607L1940.48 538.054C1945.1 539.692 1948.67 539.841 1951.2 538.501C1953.89 537.16 1956.19 535.448 1958.13 533.363C1960.21 531.278 1962.45 529.342 1964.83 527.555C1967.21 525.768 1970.56 525.321 1974.88 526.214L1975.78 524.874C1975.48 524.129 1975.26 523.459 1975.11 522.864C1974.96 522.268 1974.88 521.598 1974.88 520.853C1975.03 519.215 1975.48 517.949 1976.22 517.055C1976.97 516.013 1977.94 514.896 1979.13 513.705C1980.17 512.513 1981.14 511.247 1982.03 509.907C1983.07 508.567 1984.04 507.152 1984.94 505.663C1985.83 504.322 1986.87 503.205 1988.06 502.312C1989.26 501.269 1990.82 501.12 1992.75 501.865L1997 485.781C1997.15 485.036 1997.82 484.366 1999.01 483.771C2000.35 483.175 2001.47 482.505 2002.36 481.76C2003.4 481.015 2004 480.047 2004.15 478.856C2004.45 477.665 2003.63 476.101 2001.69 474.165C2001.99 473.569 2002.21 472.824 2002.36 471.931C2002.51 471.037 2002.73 470.218 2003.03 469.474C2003.33 468.729 2003.7 468.133 2004.15 467.687C2004.59 467.24 2005.34 467.165 2006.38 467.463L2007.05 465.899Z" fill="#00ADEF"/>
    <path d="M2246.08 480.643C2244.74 481.983 2243.69 483.026 2242.95 483.771C2242.35 484.515 2241.76 485.26 2241.16 486.004C2240.72 486.6 2240.12 487.27 2239.38 488.015C2238.78 488.76 2237.81 489.876 2236.47 491.366C2235.28 492.557 2234.16 493.823 2233.12 495.163C2232.08 496.504 2230.89 497.695 2229.55 498.738C2227.76 498.291 2226.34 498.514 2225.3 499.408C2224.41 500.301 2223.52 501.344 2222.62 502.535C2221.88 503.578 2221.13 504.62 2220.39 505.663C2219.79 506.556 2218.97 506.928 2217.93 506.78C2214.36 508.716 2210.78 510.428 2207.21 511.917C2203.63 513.258 2200.21 515.268 2196.93 517.949L2195.15 516.162L2171.91 527.331C2171.17 527.629 2170.42 528.076 2169.68 528.672C2168.93 529.267 2168.19 529.789 2167.44 530.235C2164.17 532.022 2160.74 533.661 2157.17 535.15C2153.74 536.49 2150.32 537.756 2146.89 538.948L2143.99 539.841C2145.18 542.82 2145.18 544.905 2143.99 546.096C2142.8 547.287 2141.08 548.181 2138.85 548.777C2136.62 549.223 2134.16 549.521 2131.48 549.67C2128.8 549.819 2126.71 550.34 2125.22 551.234C2123.44 550.936 2121.58 550.787 2119.64 550.787C2117.85 550.936 2115.99 551.159 2114.05 551.457C2111.97 551.755 2110.03 551.904 2108.25 551.904C2106.46 551.904 2104.52 551.681 2102.44 551.234H2101.99C2099.46 552.425 2097.23 552.649 2095.29 551.904C2093.5 551.308 2091.86 550.266 2090.38 548.777C2088.89 547.138 2087.47 545.277 2086.13 543.192C2084.94 540.958 2083.67 538.948 2082.33 537.16C2081.44 535.969 2080.32 534.256 2078.98 532.022C2077.64 529.789 2076.53 527.406 2075.63 524.874C2074.59 522.342 2073.99 519.811 2073.84 517.279C2073.55 514.598 2074.07 512.29 2075.41 510.354C2076.75 508.418 2077.87 506.333 2078.76 504.099C2079.5 501.865 2079.88 499.259 2079.88 496.28C2079.88 495.238 2079.88 494.27 2079.88 493.376C2079.73 492.483 2079.65 491.515 2079.65 490.472C2080.4 490.472 2081.22 490.547 2082.11 490.696C2083 490.696 2083.82 490.696 2084.57 490.696C2085.46 490.547 2086.13 490.249 2086.58 489.802C2087.17 489.206 2087.47 488.238 2087.47 486.898C2087.47 486.153 2087.17 485.558 2086.58 485.111C2086.13 484.664 2085.83 484.217 2085.68 483.771C2086.58 482.43 2087.4 481.388 2088.14 480.643C2089.04 479.75 2089.78 478.93 2090.38 478.186C2090.97 477.292 2091.42 476.324 2091.72 475.282C2092.01 474.09 2091.94 472.527 2091.49 470.591C2093.28 467.463 2095.36 464.708 2097.75 462.325C2100.28 459.793 2102.89 457.485 2105.57 455.4C2108.25 453.166 2111 451.007 2113.83 448.922C2116.66 446.837 2119.34 444.603 2121.87 442.22C2124.7 443.412 2126.94 443.412 2128.58 442.22C2130.36 441.029 2131.93 439.763 2133.27 438.423C2134.61 436.933 2135.95 435.742 2137.29 434.848C2138.63 433.955 2140.41 434.327 2142.65 435.965L2143.1 436.412C2147.12 432.391 2151.14 430.604 2155.16 431.051C2159.33 431.498 2162.83 432.838 2165.66 435.072C2168.64 437.306 2170.57 439.912 2171.47 442.89C2172.36 445.72 2171.54 447.656 2169.01 448.699C2170.65 450.337 2171.47 452.273 2171.47 454.507C2171.47 456.741 2170.87 458.677 2169.68 460.315C2168.34 462.102 2167.15 463.963 2166.1 465.899C2165.21 467.687 2164.24 469.623 2163.2 471.708C2161.71 475.133 2160.07 478.409 2158.29 481.537C2156.5 484.515 2153.97 487.047 2150.69 489.132C2148.01 488.387 2146.15 488.685 2145.11 490.025C2144.21 491.366 2143.54 492.855 2143.1 494.493C2142.65 495.982 2142.13 497.174 2141.53 498.067C2140.94 498.961 2139.67 498.663 2137.73 497.174L2137.29 496.727L2136.84 497.174C2135.65 498.365 2134.68 499.706 2133.94 501.195C2133.34 502.684 2132.45 503.801 2131.26 504.546C2129.92 504.099 2128.5 503.727 2127.01 503.429C2125.52 503.131 2124.11 502.833 2122.77 502.535C2122.77 505.663 2122.17 508.12 2120.98 509.907C2119.79 511.694 2118.22 513.183 2116.29 514.375C2114.5 515.417 2112.42 516.311 2110.03 517.055C2107.65 517.651 2105.27 518.47 2102.89 519.513C2100.65 520.406 2098.49 521.598 2096.41 523.087C2094.47 524.427 2092.91 526.363 2091.72 528.895C2093.21 530.533 2095.07 531.501 2097.3 531.799C2099.53 531.948 2101.84 531.948 2104.23 531.799C2106.61 531.501 2108.92 531.352 2111.15 531.352C2113.53 531.352 2115.62 531.948 2117.41 533.139L2117.63 533.363L2117.85 533.139C2121.43 532.693 2124.85 531.874 2128.13 530.682C2131.55 529.342 2134.83 528.001 2137.96 526.661C2141.23 525.172 2144.51 523.832 2147.79 522.64C2151.21 521.3 2154.71 520.332 2158.29 519.736C2159.03 520.927 2160 521.598 2161.19 521.747C2162.53 521.896 2163.8 521.821 2164.99 521.523L2165.21 521.076C2165.51 520.034 2165.81 519.14 2166.1 518.396C2166.4 517.502 2166.85 516.534 2167.44 515.492C2168.49 513.854 2169.75 512.588 2171.24 511.694C2172.73 510.801 2174.3 510.13 2175.93 509.684C2177.72 509.237 2179.58 508.939 2181.52 508.79C2183.45 508.641 2185.39 508.418 2187.33 508.12H2187.77L2188 507.45C2188.59 505.663 2189.34 504.471 2190.23 503.875C2191.27 503.131 2192.32 502.61 2193.36 502.312C2194.55 502.014 2195.74 501.791 2196.93 501.642C2198.27 501.493 2199.54 501.046 2200.73 500.301C2203.41 501.195 2205.64 500.897 2207.43 499.408C2209.22 497.918 2210.93 496.355 2212.57 494.717L2214.36 496.95L2215.03 496.057C2217.26 493.972 2218.9 492.408 2219.94 491.366C2221.13 490.323 2222.25 489.43 2223.29 488.685C2224.33 487.792 2225.53 486.972 2226.87 486.228C2228.36 485.334 2230.37 484.068 2232.9 482.43C2234.98 481.09 2236.99 479.75 2238.93 478.409C2241.01 477.069 2243.02 475.58 2244.96 473.941C2245.71 474.239 2246.08 474.835 2246.08 475.729C2246.08 476.473 2246.08 477.218 2246.08 477.962C2245.93 478.26 2245.78 478.707 2245.63 479.303C2245.63 479.898 2245.78 480.345 2246.08 480.643ZM2153.59 452.72C2153.45 452.571 2153.3 452.496 2153.15 452.496C2153.15 452.496 2153.07 452.422 2152.92 452.273C2149.8 450.635 2147.19 449.89 2145.11 450.039C2143.02 450.039 2141.08 450.635 2139.3 451.826C2137.66 452.868 2136.1 454.283 2134.61 456.07C2133.27 457.709 2131.78 459.272 2130.14 460.761C2128.65 462.102 2126.86 463.144 2124.78 463.889C2122.69 464.634 2120.16 464.559 2117.18 463.666C2116.74 466.048 2116.29 468.431 2115.84 470.814C2115.54 473.048 2115.32 475.356 2115.17 477.739C2112.64 478.633 2110.63 479.898 2109.14 481.537C2107.8 483.175 2106.61 484.962 2105.57 486.898C2104.67 488.834 2103.78 490.919 2102.89 493.153C2102.14 495.238 2101.1 497.248 2099.76 499.184L2100.65 500.301C2101.25 500.003 2101.92 500.227 2102.66 500.971C2103.41 501.716 2103.93 502.237 2104.23 502.535C2105.86 500.152 2108.02 498.142 2110.7 496.504C2113.53 494.865 2116.36 493.376 2119.19 492.036C2122.17 490.547 2125 488.983 2127.68 487.345C2130.36 485.707 2132.37 483.547 2133.71 480.866C2138.48 479.526 2142.05 476.845 2144.44 472.824C2146.82 468.803 2148.83 464.634 2150.47 460.315C2150.77 459.421 2151.29 458.155 2152.03 456.517C2152.92 454.73 2153.45 453.464 2153.59 452.72Z" fill="#00ADEF"/>
</svg>
